<svg width="291" height="288" viewBox="0 0 291 288" fill="none" xmlns="http://www.w3.org/2000/svg">
<path d="M116.909 68.3107C147.316 56.6796 188.434 54.9442 205.731 119.673C222.124 181.021 198.683 207.986 153.864 219.963C126.639 227.238 86.2464 199.335 74.3412 154.783C62.436 110.23 88.2329 79.2799 116.909 68.3107Z" fill="#FFD465"/>
<path d="M124.579 72.3376C139.692 66.5568 157.289 63.31 173.193 69.384C189.037 75.4353 203.481 90.8517 212.078 123.024C220.24 153.568 218.425 175.334 209.205 190.916C199.982 206.5 183.212 216.132 160.919 222.09C147.721 225.616 131.136 220.64 116.284 209.111C101.461 197.605 88.5147 179.675 82.6204 157.617C70.8721 113.652 96.2864 83.1602 124.579 72.3376Z" stroke="black" stroke-width="2"/>
</svg>
