<svg width="293" height="295" viewBox="0 0 293 295" fill="none" xmlns="http://www.w3.org/2000/svg">
<path d="M122.692 67.4595C153.099 55.8284 194.218 54.093 211.514 118.822C227.908 180.169 204.466 207.135 159.647 219.112C132.422 226.386 92.0298 198.484 80.1246 153.932C68.2193 109.379 94.0163 78.4287 122.692 67.4595Z" fill="#F59993"/>
<path d="M120.883 80.4865C135.996 74.7057 153.593 71.4589 169.496 77.5329C185.341 83.5842 199.785 99.0006 208.382 131.173C216.544 161.717 214.729 183.483 205.508 199.065C196.286 214.648 179.516 224.281 157.222 230.238C144.025 233.765 127.44 228.789 112.588 217.26C97.7649 205.754 84.8186 187.824 78.9243 165.766C67.176 121.801 92.5903 91.3091 120.883 80.4865Z" stroke="black" stroke-width="2"/>
</svg>
