<svg width="226" height="216" viewBox="0 0 226 216" fill="none" xmlns="http://www.w3.org/2000/svg">
<path d="M160.513 43.8199C193.317 76.6239 202.586 109.227 155.21 156.603C110.309 201.505 75.2304 194.711 42.4264 161.907C9.62237 129.103 26.4346 93.0456 59.0434 60.4369C91.6522 27.8281 127.709 11.0158 160.513 43.8199Z" fill="#3DC272"/>
<path d="M170.952 43.3424C187.377 59.7671 197.717 75.9709 198.188 93.8615C198.66 111.741 189.279 131.611 165.513 155.377C143.004 177.885 123.127 187.285 104.914 187.118C86.6992 186.951 69.8754 177.213 53.4781 160.816C37.2258 144.564 33.3426 127.604 37.4736 110.67C41.6278 93.6405 53.9172 76.5207 70.2869 60.1511C86.6565 43.7815 103.776 31.4921 120.806 27.3378C137.74 23.2069 154.7 27.09 170.952 43.3424Z" stroke="black" stroke-width="2"/>
</svg>
