<svg width="319" height="105" viewBox="0 0 319 105" fill="none" xmlns="http://www.w3.org/2000/svg">
<g id="Group 4">
<g id="Group 7">
<g id="Group 5">
<path id="Vector 4" d="M66.7526 31.5003V40.7385C66.7526 42.1489 65.3216 43.1472 63.9672 42.7536C60.6402 41.7866 54.9928 40.5806 50.7509 41.9303C46.4353 43.3035 43.0455 45.4702 41.295 46.7361C40.5156 47.2997 39.4411 47.3204 38.6611 46.7577C36.0785 44.8948 30.2776 41.0575 26.3118 41.0575C22.7666 41.0575 17.2213 42.2575 14.0086 43.0328C12.7267 43.3422 11.4739 42.3762 11.4739 41.0575V31.4433C11.4739 30.5824 10.923 29.8181 10.1063 29.5459L6.80052 28.444C4.96631 27.8326 4.9809 25.233 6.82187 24.6422L39.3727 14.1968C39.7715 14.0688 40.2005 14.0693 40.599 14.1982L72.5012 24.5124C74.3748 25.1182 74.3375 27.7818 72.4477 28.3349L68.1908 29.5808C67.3384 29.8303 66.7526 30.6121 66.7526 31.5003Z" fill="#444444"/>
<path id="Vector 5" d="M38.7862 17.6948L21.3164 23.447C19.4838 24.0505 19.4838 26.6429 21.3164 27.2464L38.7862 32.9986C39.1878 33.1308 39.6211 33.1324 40.0237 33.003L57.9195 27.2507C59.7701 26.6559 59.7701 24.0375 57.9195 23.4426L40.0237 17.6904C39.6211 17.561 39.1878 17.5625 38.7862 17.6948Z" fill="white"/>
</g>
<g id="Group 2">
<path id="Vector 1" d="M13.5105 59.9686H3.97688C3.57632 59.9686 3.33838 60.4161 3.56235 60.7482L28.1998 97.2796C28.2927 97.4174 28.4481 97.5 28.6143 97.5H51.9363C52.1044 97.5 52.2613 97.4155 52.3538 97.2751L76.4248 60.7437C76.6439 60.4113 76.4054 59.9686 76.0073 59.9686H66.4617" stroke="#B08FD0" stroke-width="5"/>
<g id="Group 1">
<path id="Vector 2" d="M39.9861 71.8972V54.7537C39.9861 54.55 40.0455 54.3534 40.165 54.1884C43.603 49.444 52.5558 42.7379 62.3885 52.1132C74.8989 64.0418 55.6969 88.7718 39.9861 88.7718" stroke="#B08FD0" stroke-width="5" stroke-linecap="round"/>
<path id="Vector 3" d="M40.233 71.8972V54.7537C40.233 54.55 40.1736 54.3534 40.0541 54.1884C36.6161 49.444 27.6633 42.7379 17.8306 52.1132C5.32014 64.0418 24.5222 88.7718 40.233 88.7718" stroke="#B08FD0" stroke-width="5" stroke-linecap="round"/>
</g>
<circle id="Ellipse 1" cx="28.6394" cy="62.0052" r="4.36411" fill="#B08FD0"/>
<circle id="Ellipse 2" cx="51.3328" cy="62.0052" r="4.36411" fill="#B08FD0"/>
</g>
</g>
<g id="Group 6">
<path id="EDUCATION" d="M90.96 96V75H101.628L101.292 78.276H95.076V83.288H99.5L99.472 86.816H95.076V92.724H101.852L101.516 96H90.96ZM109.255 75H113.567C116.33 75 118.392 75.8773 119.755 77.632C121.118 79.3867 121.799 82.0373 121.799 85.584C121.799 87.4693 121.538 89.196 121.015 90.764C120.511 92.332 119.699 93.6013 118.579 94.572C117.459 95.524 116.031 96 114.295 96H109.255V75ZM113.931 92.724C115.35 92.724 116.33 92.1173 116.871 90.904C117.431 89.672 117.711 88.16 117.711 86.368V85.416C117.711 84.128 117.627 82.9893 117.459 82C117.31 80.992 116.946 80.124 116.367 79.396C115.807 78.6493 114.958 78.276 113.819 78.276H113.343V92.724H113.931ZM135.623 96.392C133.532 96.392 131.964 95.72 130.919 94.376C129.874 93.032 129.351 91.268 129.351 89.084V75.168L133.467 75V89.42C133.467 90.148 133.504 90.764 133.579 91.268C133.672 91.772 133.887 92.2013 134.223 92.556C134.559 92.9107 135.072 93.088 135.763 93.088C136.416 93.088 136.892 92.9107 137.191 92.556C137.508 92.1827 137.704 91.7533 137.779 91.268C137.854 90.764 137.891 90.1293 137.891 89.364V75.336L141.643 75V88.608C141.643 90.5867 141.251 92.3787 140.467 93.984C139.702 95.5893 138.087 96.392 135.623 96.392ZM155.905 96.392C153.497 96.392 151.798 95.3 150.809 93.116C149.838 90.932 149.353 88.244 149.353 85.052C149.353 83.3347 149.577 81.6827 150.025 80.096C150.473 78.5093 151.192 77.2027 152.181 76.176C153.189 75.1307 154.458 74.608 155.989 74.608C157.165 74.608 158.192 74.972 159.069 75.7C159.965 76.428 160.646 77.38 161.113 78.556C161.598 79.7133 161.841 80.9267 161.841 82.196L157.865 82.392C157.865 81.552 157.725 80.6 157.445 79.536C157.165 78.4533 156.605 77.912 155.765 77.912C154.888 77.912 154.281 78.612 153.945 80.012C153.609 81.412 153.441 83.092 153.441 85.052C153.441 87.4787 153.628 89.4293 154.001 90.904C154.374 92.36 155.093 93.088 156.157 93.088C156.904 93.088 157.436 92.6493 157.753 91.772C158.07 90.876 158.276 89.7933 158.369 88.524L161.869 88.86C161.869 90.204 161.645 91.4547 161.197 92.612C160.749 93.7507 160.077 94.6653 159.181 95.356C158.285 96.0467 157.193 96.392 155.905 96.392ZM167.958 96L172.382 75.252L178.234 75L182.77 95.832L178.29 96L177.534 91.492H172.522L171.626 96H167.958ZM173.278 88.132H176.778L174.846 78.08L173.278 88.132ZM192.507 96.168V78.276H188.223L188.531 75H200.851L200.515 78.276H196.595V95.832L192.507 96.168ZM207.895 96.168V75.336L212.011 75V95.832L207.895 96.168ZM226.35 96.392C223.979 96.392 222.309 95.3747 221.338 93.34C220.386 91.2867 219.91 88.636 219.91 85.388C219.91 81.9347 220.423 79.2747 221.45 77.408C222.477 75.5413 224.129 74.608 226.406 74.608C230.755 74.608 232.93 78.164 232.93 85.276C232.93 88.468 232.435 91.1187 231.446 93.228C230.475 95.3373 228.777 96.392 226.35 96.392ZM226.406 93.088C227.395 93.088 228.049 92.444 228.366 91.156C228.683 89.8493 228.842 87.88 228.842 85.248C228.842 83.1387 228.683 81.3933 228.366 80.012C228.067 78.612 227.414 77.912 226.406 77.912C225.398 77.912 224.745 78.6027 224.446 79.984C224.147 81.3653 223.998 83.1107 223.998 85.22C223.998 87.8707 224.147 89.8493 224.446 91.156C224.763 92.444 225.417 93.088 226.406 93.088ZM250.621 96.168L244.489 83.036V95.832L240.821 96V75.168L245.105 75L250.537 87.488V75.336L254.009 75V95.832L250.621 96.168Z" fill="#444444"/>
<path id="WISDOM" d="M92.964 59L84.702 18.824L93.342 18.5L97.608 42.746L102.198 18.824L108.678 18.5L112.944 43.016L118.074 18.824L125.364 18.5L116.67 59H108.84L104.574 34.268L100.2 59H92.964ZM138.778 59.324V19.148L146.716 18.5V58.676L138.778 59.324ZM174.154 59.756C170.878 59.756 168.106 58.856 165.838 57.056C163.606 55.22 161.968 52.772 160.924 49.712L167.62 46.58L168.268 47.66C169.312 49.46 170.302 50.864 171.238 51.872C172.21 52.88 173.416 53.384 174.856 53.384C175.792 53.384 176.62 52.934 177.34 52.034C178.096 51.134 178.474 50.144 178.474 49.064C178.474 48.056 178.222 47.138 177.718 46.31C177.214 45.482 176.566 44.816 175.774 44.312L168.7 40.1C166.648 38.948 165.01 37.49 163.786 35.726C162.562 33.962 161.95 31.982 161.95 29.786C161.95 27.446 162.49 25.358 163.57 23.522C164.686 21.686 166.18 20.264 168.052 19.256C169.96 18.248 172.102 17.744 174.478 17.744C177.25 17.744 179.608 18.428 181.552 19.796C183.496 21.164 184.936 23.198 185.872 25.898L179.176 28.922C179.032 28.634 178.726 27.986 178.258 26.978C177.79 25.97 177.214 25.25 176.53 24.818C175.882 24.35 175.072 24.116 174.1 24.116C172.912 24.116 171.994 24.494 171.346 25.25C170.734 26.006 170.428 26.978 170.428 28.166C170.428 29.03 170.662 29.822 171.13 30.542C171.634 31.226 172.228 31.766 172.912 32.162L179.446 35.996C184.27 38.732 186.808 42.332 187.06 46.796C187.06 49.352 186.484 51.62 185.332 53.6C184.216 55.544 182.668 57.056 180.688 58.136C178.744 59.216 176.566 59.756 174.154 59.756ZM201.435 18.5H209.751C215.079 18.5 219.057 20.192 221.685 23.576C224.313 26.96 225.627 32.072 225.627 38.912C225.627 42.548 225.123 45.878 224.115 48.902C223.143 51.926 221.577 54.374 219.417 56.246C217.257 58.082 214.503 59 211.155 59H201.435V18.5ZM210.453 52.682C213.189 52.682 215.079 51.512 216.123 49.172C217.203 46.796 217.743 43.88 217.743 40.424V38.588C217.743 36.104 217.581 33.908 217.257 32C216.969 30.056 216.267 28.382 215.151 26.978C214.071 25.538 212.433 24.818 210.237 24.818H209.319V52.682H210.453ZM251.424 59.756C246.852 59.756 243.63 57.794 241.758 53.87C239.922 49.91 239.004 44.798 239.004 38.534C239.004 31.874 239.994 26.744 241.974 23.144C243.954 19.544 247.14 17.744 251.532 17.744C259.92 17.744 264.114 24.602 264.114 38.318C264.114 44.474 263.16 49.586 261.252 53.654C259.38 57.722 256.104 59.756 251.424 59.756ZM251.532 53.384C253.44 53.384 254.7 52.142 255.312 49.658C255.924 47.138 256.23 43.34 256.23 38.264C256.23 34.196 255.924 30.83 255.312 28.166C254.736 25.466 253.476 24.116 251.532 24.116C249.588 24.116 248.328 25.448 247.752 28.112C247.176 30.776 246.888 34.142 246.888 38.21C246.888 43.322 247.176 47.138 247.752 49.658C248.364 52.142 249.624 53.384 251.532 53.384ZM306.44 59.324V28.922L298.88 59H294.02L285.866 28.814V58.676L279.332 59V18.878L290.942 18.554L297.638 43.61L304.064 19.472L314.648 18.824V58.676L306.44 59.324Z" fill="#B08FD0"/>
</g>
</g>
</svg>
