<svg width="245" height="268" viewBox="0 0 245 268" fill="none" xmlns="http://www.w3.org/2000/svg">
<path d="M206.132 51.4201V89.6444C206.132 91.0549 204.713 92.0435 203.38 91.584C195.527 88.878 172.533 81.9424 156.211 87.1359C139.832 92.3473 127.728 101.223 123.905 104.245C123.151 104.842 122.091 104.867 121.324 104.286C115.824 100.122 94.1392 84.4129 79.9669 84.4129C66.4869 84.4129 43.7387 89.9738 36.1925 91.9194C34.9155 92.2486 33.676 91.2821 33.676 89.9634V51.3631C33.676 50.5023 33.1251 49.738 32.3084 49.4658L6.80052 40.9631C4.96631 40.3517 4.9809 37.7522 6.82187 37.1614L122.014 0.196836C122.413 0.0688496 122.842 0.0693192 123.24 0.198177L237.167 37.0316C239.04 37.6373 239.003 40.3009 237.113 40.854L207.571 49.5007C206.718 49.7502 206.132 50.5319 206.132 51.4201Z" fill="#444444"/>
<path d="M120.194 11.0955L52.1527 33.4993C50.3201 34.1027 50.3201 36.6952 52.1527 37.2986L120.194 59.7024C120.596 59.8347 121.029 59.8362 121.431 59.7068L191.132 37.303C192.983 36.7082 192.983 34.0897 191.132 33.4949L121.431 11.0911C121.029 10.9617 120.596 10.9632 120.194 11.0955Z" fill="white"/>
<path d="M40.0297 143.411H8.29399C7.89343 143.411 7.65548 143.859 7.87945 144.191L86.1719 260.28C86.2649 260.417 86.4202 260.5 86.5865 260.5H160.48C160.648 260.5 160.805 260.415 160.897 260.275L237.39 144.186C237.609 143.854 237.371 143.411 236.973 143.411H205.225" stroke="#B08FD0" stroke-width="15"/>
<path d="M122.627 180.625V126.478C122.627 126.275 122.685 126.081 122.803 125.915C133.234 111.092 161.469 89.3002 192.517 118.904C231.547 156.118 171.641 233.27 122.627 233.27" stroke="#B08FD0" stroke-width="15" stroke-linecap="round"/>
<path d="M123.398 180.625V126.478C123.398 126.275 123.34 126.081 123.222 125.915C112.791 111.092 84.5555 89.3002 53.5075 118.904C14.4778 156.118 74.3838 233.27 123.398 233.27" stroke="#B08FD0" stroke-width="15" stroke-linecap="round"/>
<circle cx="87.2283" cy="149.765" r="13.615" fill="#B08FD0"/>
<circle cx="158.026" cy="149.765" r="13.615" fill="#B08FD0"/>
</svg>
